<svg width="172" height="148" viewBox="0 0 172 148" fill="none" xmlns="http://www.w3.org/2000/svg">
<path d="M149.077 4H22.9231C12.4721 4 4 12.5473 4 23.0909V124.909C4 135.453 12.4721 144 22.9231 144H149.077C159.528 144 168 135.453 168 124.909V23.0909C168 12.5473 159.528 4 149.077 4Z" stroke="#C1C1CF" stroke-width="8" stroke-linejoin="round"/>
<path d="M117.538 54.9091C124.506 54.9091 130.154 49.2109 130.154 42.1819C130.154 35.1528 124.506 29.4546 117.538 29.4546C110.571 29.4546 104.923 35.1528 104.923 42.1819C104.923 49.2109 110.571 54.9091 117.538 54.9091Z" stroke="#C1C1CF" stroke-width="8" stroke-miterlimit="10"/>
<path d="M104.923 105.735L69.1822 69.7443C66.9079 67.4503 63.851 66.1193 60.6365 66.0232C57.4219 65.9271 54.2923 67.0732 51.8873 69.2272L4.00012 112.182M73.3847 144L122.009 94.9443C124.233 92.6963 127.209 91.3684 130.354 91.2212C133.498 91.074 136.584 92.1182 139.004 94.1488L168 118.545" stroke="#C1C1CF" stroke-width="8" stroke-linecap="round" stroke-linejoin="round"/>
</svg>
